HIERARCHY
ROOT Hips
{
	OFFSET 0.00000 0.00000 0.00000
	CHANNELS 6 Xposition Yposition Zposition Yrotation Zrotation Xrotation 
	JOINT Lumbar
	{
		OFFSET 0 0 0
		CHANNELS 3 Zrotation Xrotation Yrotation
		JOINT Neck
		{
			OFFSET 0.00 0.2701 0.00
			CHANNELS 3 Zrotation Xrotation Yrotation
			End Site
			{
				OFFSET 0.00 0.1379 0.00
			}
		}
		JOINT RightShoulder
		{
			OFFSET 0.0119 0.2289 0.1181
			CHANNELS 3 Zrotation Xrotation Yrotation
			JOINT RightElbow
			{
				OFFSET 0.00 -0.1475 0.00
				CHANNELS 2 Zrotation Yrotation
				JOINT RightWrist
				{
					OFFSET 0.00 -0.1605 0.00
					CHANNELS 2 Zrotation Xrotation
					End Site
					{
						OFFSET 0.0040 -0.1068 0.0006
					}
				}
			}
		}
		JOINT LeftShoulder
		{
			OFFSET 0.0119 0.2289 -0.1181
			CHANNELS 3 Zrotation Xrotation Yrotation
			JOINT LeftElbow
			{
				OFFSET 0.00 -0.1475 0.00
				CHANNELS 2 Zrotation Yrotation
				JOINT LeftWrist
				{
					OFFSET 0.00 -0.1605 0.00
					CHANNELS 2 Zrotation Xrotation
					End Site
					{
						OFFSET 0.0040 -0.1068 -0.0006
					}
				}
			}
		}
	}
	JOINT RightHip
	{
		OFFSET 0.0316 -0.0424 0.0458
		CHANNELS 3 Zrotation Xrotation Yrotation
		JOINT RightKnee
		{
			OFFSET 0.00 -0.2438 0.00
			CHANNELS 1 Zrotation
			JOINT RightAnkle
			{
				OFFSET 0.00 -0.2449 0.00
				CHANNELS 3 Zrotation Xrotation Yrotation
				End Site
				{
					OFFSET 0.1237 -0.0542 0.0051
				}
			}
		}
	}
	JOINT LeftHip
	{
		OFFSET 0.0316 -0.0424 -0.0458
		CHANNELS 3 Zrotation Xrotation Yrotation
		JOINT LeftKnee
		{
			OFFSET 0.00 -0.2438 0.00
			CHANNELS 1 Zrotation
			JOINT LeftAnkle
			{
				OFFSET 0.00 -0.2449 0.00
				CHANNELS 3 Zrotation Xrotation Yrotation
				End Site
				{
					OFFSET 0.1237 -0.0542 -0.0051
				}
			}
		}
	}
}
MOTION
Frames: 13
Frame Time: 0.02
-0.44624 -0.01386 -0.44387 903.25157 -32.072 0.09406 42.71444 -1.81356 1.39303 -10.44357 -0.00497 -2.11994 166.38683 -161.74915 -87.14683 134.30097 83.16306 -75.22914 -21.88498 -11.73176 11.25431 -12.131 111.79706 -96.33377 -27.36765 5.31412 36.12396 -2.14891 -10.24444 -51.13854 -7.23373 -2.20636 -3.33973 39.84277 6.15228 14.12203 -24.88354 -7.4946 2.73125 3.60707
-0.45081 -0.01354 -0.44358 904.30051 -32.08415 -0.10345 42.7 -1.83978 0.77768 -10.17595 -0.05088 -2.11994 166.38683 -162.7257 -87.14683 134.30114 83.79225 -75.22913 -21.88489 -9.74282 10.98071 -14.04391 111.95219 -94.82982 -26.54282 5.17105 36.98346 -1.79622 -10.09505 -48.67915 -7.15811 -2.30601 -3.38423 39.29619 6.34723 14.32248 -24.53012 -7.43326 2.61541 3.54738
-0.45534 -0.01325 -0.44344 905.4412 -32.17942 -0.27841 42.77351 -1.87072 0.14511 -9.88269 -0.11105 -2.11994 166.38684 -163.33666 -87.14683 134.30117 84.37531 -75.22913 -21.88489 -7.60764 10.57798 -16.08692 112.1834 -93.85159 -26.00325 5.02086 37.72433 -1.31338 -9.58067 -45.2739 -7.21298 -2.41307 -3.43798 38.86743 6.57588 14.59507 -24.18705 -7.37142 2.48143 3.4791
-0.4599 -0.01294 -0.44323 906.52941 -32.24423 -0.46098 42.81963 -1.898 -0.46489 -9.60384 -0.16488 -2.11994 166.38684 -164.11016 -87.14683 134.30112 84.97585 -75.22913 -21.88486 -5.54501 10.23627 -18.06588 112.37027 -92.60642 -25.33898 4.87045 38.52337 -0.9051 -9.23856 -42.34251 -7.20263 -2.51411 -3.48599 38.3937 6.78284 14.80667 -23.84026 -7.3113 2.36032 3.41713
-0.46444 -0.01263 -0.44303 907.66741 -32.28108 -0.65744 42.81524 -1.9297 -1.13948 -9.31298 -0.21832 -2.11994 166.38684 -164.88958 -87.14683 134.30117 85.58999 -75.22912 -21.88479 -3.44533 9.88236 -20.07898 112.59895 -91.44652 -24.63282 4.73365 39.3012 -0.42844 -8.87224 -39.18348 -7.21095 -2.62975 -3.542 37.88763 7.0196 15.13254 -23.4882 -7.24559 2.2196 3.34502
-0.469 -0.01234 -0.44284 908.72031 -32.39367 -0.8186 42.93479 -1.95371 -1.68221 -9.04157 -0.2757 -2.11994 166.38685 -165.5725 -87.14683 134.30116 86.16441 -75.22912 -21.88483 -1.39647 9.5241 -22.04242 112.75957 -90.25106 -24.09131 4.56704 40.09173 -0.06429 -8.47212 -36.29208 -7.21398 -2.71533 -3.58295 37.47381 7.20166 15.24137 -23.14913 -7.19127 2.11534 3.29191
-0.47368 -0.01208 -0.44265 909.53459 -32.70905 -0.88714 43.38951 -1.95987 -1.86263 -8.82537 -0.3428 -2.11994 166.38686 -166.08954 -87.14684 134.30119 86.65103 -75.22916 -21.88518 0.52588 9.18572 -23.88977 112.69884 -88.77185 -23.914 4.32217 41.00232 -0.04563 -8.02358 -34.34572 -7.16844 -2.7174 -3.58043 37.3062 7.21862 14.7084 -22.85406 -7.16671 2.1178 3.29427
-0.47838 -0.01185 -0.44246 910.25607 -33.09511 -0.92063 43.96322 -1.95765 -1.90828 -8.63047 -0.41292 -2.11994 166.38688 -166.52142 -87.14685 134.30122 87.09766 -75.22921 -21.88563 2.38181 8.84793 -25.6714 112.56937 -87.25213 -23.89807 4.04762 41.92038 -0.14435 -7.56055 -32.71131 -7.11435 -2.68832 -3.5622 37.22346 7.17995 13.95937 -22.56991 -7.15383 2.15735 3.31591
-0.48306 -0.0116 -0.44228 911.0075 -33.43918 -0.97022 44.47252 -1.95662 -2.01158 -8.42898 -0.48019 -2.11994 166.3869 -166.98657 -87.14686 134.30124 87.55583 -75.22925 -21.88602 4.23464 8.50973 -27.44746 112.48089 -85.79382 -23.82596 3.78492 42.79973 -0.18824 -7.13274 -30.95695 -7.06638 -2.67212 -3.55068 37.08804 7.17007 13.32611 -22.2742 -7.13663 2.17887 3.32811
-0.4878 -0.01136 -0.44206 911.8143 -33.8271 -1.01844 45.02775 -1.96669 -2.13111 -8.21371 -0.55433 -2.11994 166.38692 -167.46197 -87.14687 134.30128 88.04002 -75.2293 -21.88649 6.23321 8.16664 -29.37856 112.35431 -84.17673 -23.69549 3.52754 43.82454 -0.23499 -6.57296 -29.07852 -7.01337 -2.66138 -3.54121 37.01561 7.14665 12.6217 -22.00706 -7.11522 2.20459 3.34277
-0.49241 -0.01112 -0.44192 912.48186 -34.14032 -1.06136 45.51542 -1.95166 -2.18411 -8.03232 -0.61451 -2.11994 166.38694 -167.90028 -87.14688 134.3013 88.46152 -75.22934 -21.88683 7.91055 7.83676 -30.96847 112.2893 -82.8678 -23.71562 3.25379 44.54889 -0.30389 -6.2874 -27.54287 -6.96718 -2.63207 -3.52377 36.83149 7.13771 12.01247 -21.68238 -7.10541 2.23075 3.3571
-0.49669 -0.0109 -0.44195 912.79249 -34.22144 -1.09909 45.77802 -1.86895 -2.09054 -7.94105 -0.63714 -2.11994 166.38694 -168.26127 -87.14688 134.3013 88.71701 -75.22934 -21.8868 8.71601 7.53378 -31.63885 112.41475 -82.47398 -24.16067 2.92721 44.44965 -0.41862 -6.77952 -26.90299 -6.94125 -2.55632 -3.48687 36.30977 7.18261 11.72635 -21.20029 -7.1242 2.24791 3.36508
-0.50084 -0.0107 -0.44206 912.96473 -34.22608 -1.13263 45.96965 -1.76133 -1.93397 -7.88276 -0.64534 -2.11994 166.38693 -168.58863 -87.14687 134.30129 88.91184 -75.22932 -21.88666 9.20034 7.24661 -31.96626 112.60356 -82.38052 -24.74177 2.58751 44.04702 -0.54971 -7.54578 -26.59774 -6.92199 -2.4635 -3.44273 35.67363 7.24381 11.54227 -20.65899 -7.15436 2.26449 3.3722
